# xmcd
#
# Track frame offsets:
#	150
#	16268
#	30821
#	44835
#	57401
#	76818
#	97177
#	114914
#	132605
#	149821
#	163910
#
# Disc length: 2367 seconds
#
# Revision: 2
# Processed by: cddbd v1.5.2PL0 Copyright (c) Steve Scherf et al.
# Submitted via: audiograbber 1.83.01
#
DISCID=9a093d0b
DTITLE=John Mayall - 20th Century Masters - The Millennium Collection - The Bes
DTITLE=t Of
DYEAR=1900
DGENRE=Oldies
TTITLE0=All Your Love
TTITLE1=Hideaway
TTITLE2=Ramblin' On My Mind
TTITLE3=Dust My Blues
TTITLE4=The Death Of J.B. Lenoir
TTITLE5=I Can't Quit You Baby
TTITLE6=Your Funeral And My Trial
TTITLE7=Greeny
TTITLE8=Sonny Boy Blow
TTITLE9=No Reply
TTITLE10=Walking On Sunset
EXTD=
EXTT0=
EXTT1=
EXTT2=
EXTT3=
EXTT4=
EXTT5=
EXTT6=
EXTT7=
EXTT8=
EXTT9=
EXTT10=
PLAYORDER=
